<mxfile host="Electron" agent="Mozilla/5.0 (Windows NT 10.0; Win64; x64) AppleWebKit/537.36 (KHTML, like Gecko) draw.io/28.1.2 Chrome/138.0.7204.243 Electron/37.4.0 Safari/537.36" version="28.1.2">
  <diagram name="Proveedores y Productos" id="proveedores y productos">
    <mxGraphModel dx="2412" dy="2164" grid="1" gridSize="10" guides="1" tooltips="1" connect="1" arrows="1" fold="1" page="1" pageScale="1" pageWidth="827" pageHeight="1169" math="0" shadow="0">
      <root>
        <mxCell id="0" />
        <mxCell id="1" parent="0" />
        <mxCell id="h6zpoAew70x22OwjK9tS-34" style="rounded=0;orthogonalLoop=1;jettySize=auto;html=1;exitX=0.25;exitY=1;exitDx=0;exitDy=0;endArrow=none;endFill=0;" parent="1" source="3" target="h6zpoAew70x22OwjK9tS-33" edge="1">
          <mxGeometry relative="1" as="geometry" />
        </mxCell>
        <mxCell id="3" value="Producto" style="shape=rectangle;whiteSpace=wrap;html=1;labelBackgroundColor=none;" parent="1" vertex="1">
          <mxGeometry x="630" y="455" width="100" height="50" as="geometry" />
        </mxCell>
        <mxCell id="10" value="&lt;u&gt;idProducto&lt;/u&gt;" style="ellipse;whiteSpace=wrap;html=1;labelBackgroundColor=none;" parent="1" vertex="1">
          <mxGeometry x="510" y="359.92" width="100" height="40" as="geometry" />
        </mxCell>
        <mxCell id="11" style="endArrow=none;labelBackgroundColor=none;fontColor=default;" parent="1" source="10" target="3" edge="1">
          <mxGeometry relative="1" as="geometry" />
        </mxCell>
        <mxCell id="13" style="endArrow=none;labelBackgroundColor=none;fontColor=default;exitX=0.5;exitY=0;exitDx=0;exitDy=0;" parent="1" source="08eEhRoF3qQgYaHTuPXr-30" target="3" edge="1">
          <mxGeometry relative="1" as="geometry">
            <mxPoint x="178.82249273473735" y="196.34265051969635" as="sourcePoint" />
          </mxGeometry>
        </mxCell>
        <mxCell id="08eEhRoF3qQgYaHTuPXr-32" value="N" style="edgeLabel;html=1;align=center;verticalAlign=middle;resizable=0;points=[];" parent="13" vertex="1" connectable="0">
          <mxGeometry x="0.5733" y="1" relative="1" as="geometry">
            <mxPoint as="offset" />
          </mxGeometry>
        </mxCell>
        <mxCell id="14" value="nombre" style="ellipse;whiteSpace=wrap;html=1;labelBackgroundColor=none;" parent="1" vertex="1">
          <mxGeometry x="710" y="350" width="100" height="40" as="geometry" />
        </mxCell>
        <mxCell id="15" style="endArrow=none;labelBackgroundColor=none;fontColor=default;" parent="1" source="14" target="3" edge="1">
          <mxGeometry relative="1" as="geometry" />
        </mxCell>
        <mxCell id="18" style="endArrow=none;labelBackgroundColor=none;fontColor=default;" parent="1" source="16" target="3" edge="1">
          <mxGeometry relative="1" as="geometry" />
        </mxCell>
        <mxCell id="gljLNmItJ9WPMDE9Uoeo-21" value="cantidadStock" style="ellipse;whiteSpace=wrap;html=1;labelBackgroundColor=none;" parent="1" vertex="1">
          <mxGeometry x="790" y="585" width="100" height="40" as="geometry" />
        </mxCell>
        <mxCell id="gljLNmItJ9WPMDE9Uoeo-23" value="" style="endArrow=none;html=1;rounded=0;entryX=0.3;entryY=0;entryDx=0;entryDy=0;entryPerimeter=0;exitX=0.926;exitY=0.979;exitDx=0;exitDy=0;exitPerimeter=0;labelBackgroundColor=none;fontColor=default;" parent="1" source="3" target="gljLNmItJ9WPMDE9Uoeo-21" edge="1">
          <mxGeometry width="50" height="50" relative="1" as="geometry">
            <mxPoint x="680" y="480" as="sourcePoint" />
            <mxPoint x="730" y="430" as="targetPoint" />
          </mxGeometry>
        </mxCell>
        <mxCell id="gljLNmItJ9WPMDE9Uoeo-24" value="" style="endArrow=none;html=1;rounded=0;entryX=0.5;entryY=0;entryDx=0;entryDy=0;exitX=0.457;exitY=1.02;exitDx=0;exitDy=0;exitPerimeter=0;labelBackgroundColor=none;fontColor=default;" parent="1" source="3" target="gljLNmItJ9WPMDE9Uoeo-25" edge="1">
          <mxGeometry width="50" height="50" relative="1" as="geometry">
            <mxPoint x="720" y="540" as="sourcePoint" />
            <mxPoint x="737" y="566" as="targetPoint" />
            <Array as="points">
              <mxPoint x="670" y="520" />
            </Array>
          </mxGeometry>
        </mxCell>
        <mxCell id="gljLNmItJ9WPMDE9Uoeo-25" value="precioProducto" style="ellipse;whiteSpace=wrap;html=1;labelBackgroundColor=none;" parent="1" vertex="1">
          <mxGeometry x="550" y="565" width="100" height="40" as="geometry" />
        </mxCell>
        <mxCell id="gljLNmItJ9WPMDE9Uoeo-26" value="codigoBarras" style="ellipse;whiteSpace=wrap;html=1;labelBackgroundColor=none;" parent="1" vertex="1">
          <mxGeometry x="410" y="525" width="100" height="40" as="geometry" />
        </mxCell>
        <mxCell id="gljLNmItJ9WPMDE9Uoeo-27" value="" style="endArrow=none;html=1;rounded=0;entryX=0.5;entryY=0;entryDx=0;entryDy=0;exitX=0.098;exitY=0.992;exitDx=0;exitDy=0;exitPerimeter=0;labelBackgroundColor=none;fontColor=default;" parent="1" source="3" target="gljLNmItJ9WPMDE9Uoeo-26" edge="1">
          <mxGeometry width="50" height="50" relative="1" as="geometry">
            <mxPoint x="686" y="520" as="sourcePoint" />
            <mxPoint x="670" y="558" as="targetPoint" />
            <Array as="points" />
          </mxGeometry>
        </mxCell>
        <mxCell id="gljLNmItJ9WPMDE9Uoeo-28" value="fechaIngreso" style="ellipse;whiteSpace=wrap;html=1;labelBackgroundColor=none;" parent="1" vertex="1">
          <mxGeometry x="780" y="415" width="100" height="40" as="geometry" />
        </mxCell>
        <mxCell id="gljLNmItJ9WPMDE9Uoeo-29" value="estado" style="ellipse;whiteSpace=wrap;html=1;labelBackgroundColor=none;" parent="1" vertex="1">
          <mxGeometry x="820" y="485" width="100" height="40" as="geometry" />
        </mxCell>
        <mxCell id="gljLNmItJ9WPMDE9Uoeo-30" value="" style="endArrow=none;html=1;rounded=0;entryX=0;entryY=0.5;entryDx=0;entryDy=0;exitX=1;exitY=0.25;exitDx=0;exitDy=0;labelBackgroundColor=none;fontColor=default;" parent="1" source="3" target="gljLNmItJ9WPMDE9Uoeo-28" edge="1">
          <mxGeometry width="50" height="50" relative="1" as="geometry">
            <mxPoint x="730" y="520" as="sourcePoint" />
            <mxPoint x="747" y="546" as="targetPoint" />
          </mxGeometry>
        </mxCell>
        <mxCell id="gljLNmItJ9WPMDE9Uoeo-31" value="" style="endArrow=none;html=1;rounded=0;entryX=-0.002;entryY=0.383;entryDx=0;entryDy=0;entryPerimeter=0;exitX=1;exitY=0.75;exitDx=0;exitDy=0;labelBackgroundColor=none;fontColor=default;" parent="1" source="3" target="gljLNmItJ9WPMDE9Uoeo-29" edge="1">
          <mxGeometry width="50" height="50" relative="1" as="geometry">
            <mxPoint x="720" y="510" as="sourcePoint" />
            <mxPoint x="737" y="536" as="targetPoint" />
          </mxGeometry>
        </mxCell>
        <mxCell id="uA272MFgi9DEpugLpFdo-20" value="N" style="text;html=1;align=center;verticalAlign=middle;whiteSpace=wrap;rounded=0;labelBackgroundColor=none;" parent="1" vertex="1">
          <mxGeometry x="570" y="455" width="60" height="30" as="geometry" />
        </mxCell>
        <mxCell id="h6zpoAew70x22OwjK9tS-43" style="rounded=0;orthogonalLoop=1;jettySize=auto;html=1;exitX=0;exitY=0.25;exitDx=0;exitDy=0;endArrow=none;endFill=0;" parent="1" source="pQA0Kj6OJykvpGHmowDV-48" target="h6zpoAew70x22OwjK9tS-42" edge="1">
          <mxGeometry relative="1" as="geometry" />
        </mxCell>
        <mxCell id="cYDFPBk2xyAjtoR8LwgO-27" style="rounded=0;orthogonalLoop=1;jettySize=auto;html=1;entryX=0;entryY=0.5;entryDx=0;entryDy=0;endArrow=none;endFill=0;" parent="1" source="pQA0Kj6OJykvpGHmowDV-48" target="cYDFPBk2xyAjtoR8LwgO-28" edge="1">
          <mxGeometry relative="1" as="geometry">
            <mxPoint x="930" y="70" as="targetPoint" />
          </mxGeometry>
        </mxCell>
        <mxCell id="pQA0Kj6OJykvpGHmowDV-48" value="Compra" style="rounded=0;whiteSpace=wrap;html=1;" parent="1" vertex="1">
          <mxGeometry x="620" y="110" width="120" height="60" as="geometry" />
        </mxCell>
        <mxCell id="pQA0Kj6OJykvpGHmowDV-49" value="" style="endArrow=none;html=1;rounded=0;entryX=0.5;entryY=1;entryDx=0;entryDy=0;" parent="1" target="pQA0Kj6OJykvpGHmowDV-48" edge="1">
          <mxGeometry width="50" height="50" relative="1" as="geometry">
            <mxPoint x="680" y="230" as="sourcePoint" />
            <mxPoint x="630" y="300" as="targetPoint" />
          </mxGeometry>
        </mxCell>
        <mxCell id="08eEhRoF3qQgYaHTuPXr-41" value="1" style="edgeLabel;html=1;align=center;verticalAlign=middle;resizable=0;points=[];" parent="pQA0Kj6OJykvpGHmowDV-49" vertex="1" connectable="0">
          <mxGeometry x="0.2596" y="1" relative="1" as="geometry">
            <mxPoint as="offset" />
          </mxGeometry>
        </mxCell>
        <mxCell id="pQA0Kj6OJykvpGHmowDV-50" value="incluye" style="rhombus;whiteSpace=wrap;html=1;" parent="1" vertex="1">
          <mxGeometry x="640" y="227.92" width="80" height="80" as="geometry" />
        </mxCell>
        <mxCell id="pQA0Kj6OJykvpGHmowDV-51" value="" style="endArrow=none;html=1;rounded=0;entryX=0.5;entryY=1;entryDx=0;entryDy=0;exitX=0.5;exitY=0;exitDx=0;exitDy=0;" parent="1" source="3" target="pQA0Kj6OJykvpGHmowDV-50" edge="1">
          <mxGeometry width="50" height="50" relative="1" as="geometry">
            <mxPoint x="580" y="350" as="sourcePoint" />
            <mxPoint x="630" y="300" as="targetPoint" />
            <Array as="points">
              <mxPoint x="680" y="380" />
            </Array>
          </mxGeometry>
        </mxCell>
        <mxCell id="08eEhRoF3qQgYaHTuPXr-42" value="N" style="edgeLabel;html=1;align=center;verticalAlign=middle;resizable=0;points=[];" parent="pQA0Kj6OJykvpGHmowDV-51" vertex="1" connectable="0">
          <mxGeometry x="-0.6711" relative="1" as="geometry">
            <mxPoint as="offset" />
          </mxGeometry>
        </mxCell>
        <mxCell id="pQA0Kj6OJykvpGHmowDV-52" value="&lt;u style=&quot;&quot;&gt;idCompra&lt;/u&gt;" style="ellipse;whiteSpace=wrap;html=1;" parent="1" vertex="1">
          <mxGeometry x="815" y="-100" width="110" height="60" as="geometry" />
        </mxCell>
        <mxCell id="pQA0Kj6OJykvpGHmowDV-54" value="&lt;b&gt;idProducto&lt;/b&gt;" style="ellipse;whiteSpace=wrap;html=1;" parent="1" vertex="1">
          <mxGeometry x="530" y="-160" width="110" height="60" as="geometry" />
        </mxCell>
        <mxCell id="y7kLAWsCqg2laiNbHwTD-18" value="" style="endArrow=none;html=1;rounded=0;entryX=0.25;entryY=0;entryDx=0;entryDy=0;exitX=0.713;exitY=0.938;exitDx=0;exitDy=0;exitPerimeter=0;" parent="1" source="pQA0Kj6OJykvpGHmowDV-54" target="pQA0Kj6OJykvpGHmowDV-48" edge="1">
          <mxGeometry width="50" height="50" relative="1" as="geometry">
            <mxPoint x="580" y="210" as="sourcePoint" />
            <mxPoint x="620" y="150" as="targetPoint" />
          </mxGeometry>
        </mxCell>
        <mxCell id="y7kLAWsCqg2laiNbHwTD-19" value="" style="endArrow=none;html=1;rounded=0;exitX=0.5;exitY=1;exitDx=0;exitDy=0;entryX=0.75;entryY=0;entryDx=0;entryDy=0;" parent="1" source="pQA0Kj6OJykvpGHmowDV-52" target="pQA0Kj6OJykvpGHmowDV-48" edge="1">
          <mxGeometry width="50" height="50" relative="1" as="geometry">
            <mxPoint x="570" y="150" as="sourcePoint" />
            <mxPoint x="620" y="100" as="targetPoint" />
          </mxGeometry>
        </mxCell>
        <mxCell id="y7kLAWsCqg2laiNbHwTD-26" value="detalleFactura" style="rounded=0;whiteSpace=wrap;html=1;" parent="1" vertex="1">
          <mxGeometry x="1120" y="110" width="120" height="60" as="geometry" />
        </mxCell>
        <mxCell id="y7kLAWsCqg2laiNbHwTD-28" value="&lt;u&gt;idDfactura&lt;/u&gt;" style="ellipse;whiteSpace=wrap;html=1;" parent="1" vertex="1">
          <mxGeometry x="1193" y="-19.999999999999986" width="96" height="60" as="geometry" />
        </mxCell>
        <mxCell id="y7kLAWsCqg2laiNbHwTD-32" value="&lt;b&gt;idProducto&lt;/b&gt;" style="ellipse;whiteSpace=wrap;html=1;direction=east;" parent="1" vertex="1">
          <mxGeometry x="1010" y="207.92000000000007" width="96" height="60" as="geometry" />
        </mxCell>
        <mxCell id="y7kLAWsCqg2laiNbHwTD-35" value="" style="endArrow=none;html=1;rounded=0;entryX=0.75;entryY=0;entryDx=0;entryDy=0;exitX=0.769;exitY=0.958;exitDx=0;exitDy=0;exitPerimeter=0;" parent="1" source="y7kLAWsCqg2laiNbHwTD-28" target="y7kLAWsCqg2laiNbHwTD-26" edge="1">
          <mxGeometry width="50" height="50" relative="1" as="geometry">
            <mxPoint x="1040" y="37.920000000000016" as="sourcePoint" />
            <mxPoint x="1090" y="-12.079999999999984" as="targetPoint" />
          </mxGeometry>
        </mxCell>
        <mxCell id="y7kLAWsCqg2laiNbHwTD-37" value="" style="endArrow=none;html=1;rounded=0;entryX=0;entryY=1;entryDx=0;entryDy=0;exitX=1;exitY=0;exitDx=0;exitDy=0;" parent="1" source="y7kLAWsCqg2laiNbHwTD-32" target="y7kLAWsCqg2laiNbHwTD-26" edge="1">
          <mxGeometry width="50" height="50" relative="1" as="geometry">
            <mxPoint x="1040" y="37.920000000000016" as="sourcePoint" />
            <mxPoint x="1090" y="-12.079999999999984" as="targetPoint" />
          </mxGeometry>
        </mxCell>
        <mxCell id="y7kLAWsCqg2laiNbHwTD-38" value="&lt;b&gt;idCompra&lt;/b&gt;" style="ellipse;whiteSpace=wrap;html=1;" parent="1" vertex="1">
          <mxGeometry x="1280" y="20.000000000000014" width="96" height="60" as="geometry" />
        </mxCell>
        <mxCell id="y7kLAWsCqg2laiNbHwTD-39" value="" style="endArrow=none;html=1;rounded=0;entryX=0;entryY=0.5;entryDx=0;entryDy=0;exitX=1;exitY=0.5;exitDx=0;exitDy=0;" parent="1" source="y7kLAWsCqg2laiNbHwTD-26" target="y7kLAWsCqg2laiNbHwTD-38" edge="1">
          <mxGeometry width="50" height="50" relative="1" as="geometry">
            <mxPoint x="1210" y="67.92000000000002" as="sourcePoint" />
            <mxPoint x="1260" y="17.920000000000016" as="targetPoint" />
          </mxGeometry>
        </mxCell>
        <mxCell id="y7kLAWsCqg2laiNbHwTD-44" value="Usuario" style="rounded=0;whiteSpace=wrap;html=1;" parent="1" vertex="1">
          <mxGeometry x="55" y="110" width="120" height="60" as="geometry" />
        </mxCell>
        <mxCell id="y7kLAWsCqg2laiNbHwTD-47" value="&lt;u&gt;idUsuario&lt;/u&gt;" style="ellipse;whiteSpace=wrap;html=1;" parent="1" vertex="1">
          <mxGeometry x="-60" y="30" width="80" height="40" as="geometry" />
        </mxCell>
        <mxCell id="y7kLAWsCqg2laiNbHwTD-48" value="nombreUsuario" style="ellipse;whiteSpace=wrap;html=1;" parent="1" vertex="1">
          <mxGeometry x="-139" y="190" width="100" height="40" as="geometry" />
        </mxCell>
        <mxCell id="y7kLAWsCqg2laiNbHwTD-49" value="contraseña" style="ellipse;whiteSpace=wrap;html=1;" parent="1" vertex="1">
          <mxGeometry x="-39" y="220" width="100" height="40" as="geometry" />
        </mxCell>
        <mxCell id="y7kLAWsCqg2laiNbHwTD-50" value="correo" style="ellipse;whiteSpace=wrap;html=1;" parent="1" vertex="1">
          <mxGeometry x="65" y="220" width="100" height="40" as="geometry" />
        </mxCell>
        <mxCell id="y7kLAWsCqg2laiNbHwTD-51" value="numTel" style="ellipse;whiteSpace=wrap;html=1;" parent="1" vertex="1">
          <mxGeometry x="190" y="210" width="100" height="40" as="geometry" />
        </mxCell>
        <mxCell id="y7kLAWsCqg2laiNbHwTD-52" value="" style="endArrow=none;html=1;rounded=0;entryX=0;entryY=0.5;entryDx=0;entryDy=0;exitX=1;exitY=0.5;exitDx=0;exitDy=0;" parent="1" source="y7kLAWsCqg2laiNbHwTD-47" target="y7kLAWsCqg2laiNbHwTD-44" edge="1">
          <mxGeometry width="50" height="50" relative="1" as="geometry">
            <mxPoint x="-135" y="180" as="sourcePoint" />
            <mxPoint x="-85" y="130" as="targetPoint" />
          </mxGeometry>
        </mxCell>
        <mxCell id="y7kLAWsCqg2laiNbHwTD-54" value="" style="endArrow=none;html=1;rounded=0;entryX=0;entryY=1;entryDx=0;entryDy=0;exitX=1;exitY=0.5;exitDx=0;exitDy=0;" parent="1" source="y7kLAWsCqg2laiNbHwTD-48" target="y7kLAWsCqg2laiNbHwTD-44" edge="1">
          <mxGeometry width="50" height="50" relative="1" as="geometry">
            <mxPoint x="-135" y="180" as="sourcePoint" />
            <mxPoint x="-85" y="130" as="targetPoint" />
          </mxGeometry>
        </mxCell>
        <mxCell id="y7kLAWsCqg2laiNbHwTD-56" value="" style="endArrow=none;html=1;rounded=0;entryX=0.25;entryY=1;entryDx=0;entryDy=0;exitX=0.5;exitY=0;exitDx=0;exitDy=0;" parent="1" source="y7kLAWsCqg2laiNbHwTD-49" target="y7kLAWsCqg2laiNbHwTD-44" edge="1">
          <mxGeometry width="50" height="50" relative="1" as="geometry">
            <mxPoint x="-135" y="180" as="sourcePoint" />
            <mxPoint x="-85" y="130" as="targetPoint" />
          </mxGeometry>
        </mxCell>
        <mxCell id="y7kLAWsCqg2laiNbHwTD-57" value="" style="endArrow=none;html=1;rounded=0;entryX=0.5;entryY=1;entryDx=0;entryDy=0;exitX=0.5;exitY=0;exitDx=0;exitDy=0;" parent="1" source="y7kLAWsCqg2laiNbHwTD-50" target="y7kLAWsCqg2laiNbHwTD-44" edge="1">
          <mxGeometry width="50" height="50" relative="1" as="geometry">
            <mxPoint x="-135" y="180" as="sourcePoint" />
            <mxPoint x="-85" y="130" as="targetPoint" />
          </mxGeometry>
        </mxCell>
        <mxCell id="y7kLAWsCqg2laiNbHwTD-58" value="" style="endArrow=none;html=1;rounded=0;entryX=0.9;entryY=1.004;entryDx=0;entryDy=0;exitX=0.28;exitY=0.069;exitDx=0;exitDy=0;entryPerimeter=0;exitPerimeter=0;" parent="1" source="y7kLAWsCqg2laiNbHwTD-51" target="y7kLAWsCqg2laiNbHwTD-44" edge="1">
          <mxGeometry width="50" height="50" relative="1" as="geometry">
            <mxPoint x="-135" y="180" as="sourcePoint" />
            <mxPoint x="-85" y="130" as="targetPoint" />
          </mxGeometry>
        </mxCell>
        <mxCell id="cYDFPBk2xyAjtoR8LwgO-21" style="rounded=0;orthogonalLoop=1;jettySize=auto;html=1;endArrow=none;endFill=0;" parent="1" source="y7kLAWsCqg2laiNbHwTD-67" target="pQA0Kj6OJykvpGHmowDV-48" edge="1">
          <mxGeometry relative="1" as="geometry" />
        </mxCell>
        <mxCell id="cYDFPBk2xyAjtoR8LwgO-29" value="1" style="edgeLabel;html=1;align=center;verticalAlign=middle;resizable=0;points=[];" parent="cYDFPBk2xyAjtoR8LwgO-21" vertex="1" connectable="0">
          <mxGeometry x="0.5837" y="3" relative="1" as="geometry">
            <mxPoint as="offset" />
          </mxGeometry>
        </mxCell>
        <mxCell id="y7kLAWsCqg2laiNbHwTD-67" value="contiene" style="rhombus;whiteSpace=wrap;html=1;" parent="1" vertex="1">
          <mxGeometry x="840" y="100" width="80" height="80" as="geometry" />
        </mxCell>
        <mxCell id="y7kLAWsCqg2laiNbHwTD-68" value="" style="endArrow=none;html=1;rounded=0;exitX=0;exitY=0.5;exitDx=0;exitDy=0;entryX=1;entryY=0.5;entryDx=0;entryDy=0;" parent="1" source="y7kLAWsCqg2laiNbHwTD-26" target="y7kLAWsCqg2laiNbHwTD-67" edge="1">
          <mxGeometry width="50" height="50" relative="1" as="geometry">
            <mxPoint x="1404.64" y="397.92" as="sourcePoint" />
            <mxPoint x="1454.64" y="347.92" as="targetPoint" />
          </mxGeometry>
        </mxCell>
        <mxCell id="08eEhRoF3qQgYaHTuPXr-40" value="1" style="edgeLabel;html=1;align=center;verticalAlign=middle;resizable=0;points=[];" parent="y7kLAWsCqg2laiNbHwTD-68" vertex="1" connectable="0">
          <mxGeometry x="-0.8111" relative="1" as="geometry">
            <mxPoint as="offset" />
          </mxGeometry>
        </mxCell>
        <mxCell id="08eEhRoF3qQgYaHTuPXr-27" style="edgeStyle=orthogonalEdgeStyle;rounded=0;orthogonalLoop=1;jettySize=auto;html=1;entryX=0.5;entryY=1;entryDx=0;entryDy=0;endArrow=none;endFill=0;exitX=0.211;exitY=0.05;exitDx=0;exitDy=0;exitPerimeter=0;" parent="1" source="08eEhRoF3qQgYaHTuPXr-18" target="08eEhRoF3qQgYaHTuPXr-20" edge="1">
          <mxGeometry relative="1" as="geometry" />
        </mxCell>
        <mxCell id="08eEhRoF3qQgYaHTuPXr-28" style="edgeStyle=orthogonalEdgeStyle;rounded=0;orthogonalLoop=1;jettySize=auto;html=1;exitX=0.75;exitY=0;exitDx=0;exitDy=0;entryX=0;entryY=0;entryDx=0;entryDy=0;endArrow=none;endFill=0;" parent="1" source="08eEhRoF3qQgYaHTuPXr-18" target="08eEhRoF3qQgYaHTuPXr-22" edge="1">
          <mxGeometry relative="1" as="geometry" />
        </mxCell>
        <mxCell id="08eEhRoF3qQgYaHTuPXr-18" value="Categoria" style="rounded=0;whiteSpace=wrap;html=1;" parent="1" vertex="1">
          <mxGeometry x="620" y="840" width="120" height="60" as="geometry" />
        </mxCell>
        <mxCell id="08eEhRoF3qQgYaHTuPXr-20" value="nombreCat" style="ellipse;whiteSpace=wrap;html=1;" parent="1" vertex="1">
          <mxGeometry x="520" y="760" width="80" height="50" as="geometry" />
        </mxCell>
        <mxCell id="08eEhRoF3qQgYaHTuPXr-22" value="&lt;u&gt;idCategoria&lt;/u&gt;" style="ellipse;whiteSpace=wrap;html=1;" parent="1" vertex="1">
          <mxGeometry x="800" y="790" width="80" height="50" as="geometry" />
        </mxCell>
        <mxCell id="08eEhRoF3qQgYaHTuPXr-31" value="" style="endArrow=none;labelBackgroundColor=none;fontColor=default;exitX=0.5;exitY=0;exitDx=0;exitDy=0;" parent="1" source="08eEhRoF3qQgYaHTuPXr-18" target="08eEhRoF3qQgYaHTuPXr-30" edge="1">
          <mxGeometry relative="1" as="geometry">
            <mxPoint x="686" y="850" as="sourcePoint" />
            <mxPoint x="680" y="505" as="targetPoint" />
          </mxGeometry>
        </mxCell>
        <mxCell id="08eEhRoF3qQgYaHTuPXr-33" value="1" style="edgeLabel;html=1;align=center;verticalAlign=middle;resizable=0;points=[];" parent="08eEhRoF3qQgYaHTuPXr-31" vertex="1" connectable="0">
          <mxGeometry x="-0.587" relative="1" as="geometry">
            <mxPoint as="offset" />
          </mxGeometry>
        </mxCell>
        <mxCell id="-v-9oCXLF4C00A8zys7m-19" value="N" style="edgeLabel;html=1;align=center;verticalAlign=middle;resizable=0;points=[];" parent="08eEhRoF3qQgYaHTuPXr-31" vertex="1" connectable="0">
          <mxGeometry x="-0.5742" y="-5" relative="1" as="geometry">
            <mxPoint x="-2" as="offset" />
          </mxGeometry>
        </mxCell>
        <mxCell id="08eEhRoF3qQgYaHTuPXr-30" value="Pertenece" style="rhombus;whiteSpace=wrap;html=1;" parent="1" vertex="1">
          <mxGeometry x="640" y="605" width="80" height="80" as="geometry" />
        </mxCell>
        <mxCell id="08eEhRoF3qQgYaHTuPXr-43" value="" style="endArrow=none;html=1;rounded=0;exitX=1;exitY=0.5;exitDx=0;exitDy=0;entryX=0;entryY=0.5;entryDx=0;entryDy=0;" parent="1" source="08eEhRoF3qQgYaHTuPXr-44" target="pQA0Kj6OJykvpGHmowDV-48" edge="1">
          <mxGeometry width="50" height="50" relative="1" as="geometry">
            <mxPoint x="280" y="230" as="sourcePoint" />
            <mxPoint x="330" y="180" as="targetPoint" />
          </mxGeometry>
        </mxCell>
        <mxCell id="08eEhRoF3qQgYaHTuPXr-56" value="N" style="edgeLabel;html=1;align=center;verticalAlign=middle;resizable=0;points=[];" parent="08eEhRoF3qQgYaHTuPXr-43" vertex="1" connectable="0">
          <mxGeometry x="0.8" y="-2" relative="1" as="geometry">
            <mxPoint as="offset" />
          </mxGeometry>
        </mxCell>
        <mxCell id="08eEhRoF3qQgYaHTuPXr-45" value="" style="endArrow=none;html=1;rounded=0;exitX=1;exitY=0.5;exitDx=0;exitDy=0;entryX=0;entryY=0.5;entryDx=0;entryDy=0;" parent="1" source="y7kLAWsCqg2laiNbHwTD-44" target="08eEhRoF3qQgYaHTuPXr-44" edge="1">
          <mxGeometry width="50" height="50" relative="1" as="geometry">
            <mxPoint x="175" y="140" as="sourcePoint" />
            <mxPoint x="620" y="140" as="targetPoint" />
          </mxGeometry>
        </mxCell>
        <mxCell id="08eEhRoF3qQgYaHTuPXr-55" value="1" style="edgeLabel;html=1;align=center;verticalAlign=middle;resizable=0;points=[];" parent="08eEhRoF3qQgYaHTuPXr-45" vertex="1" connectable="0">
          <mxGeometry x="-0.7576" y="-3" relative="1" as="geometry">
            <mxPoint as="offset" />
          </mxGeometry>
        </mxCell>
        <mxCell id="08eEhRoF3qQgYaHTuPXr-44" value="Realiza" style="rhombus;whiteSpace=wrap;html=1;" parent="1" vertex="1">
          <mxGeometry x="340" y="100" width="80" height="80" as="geometry" />
        </mxCell>
        <mxCell id="08eEhRoF3qQgYaHTuPXr-50" style="edgeStyle=orthogonalEdgeStyle;rounded=0;orthogonalLoop=1;jettySize=auto;html=1;entryX=0.5;entryY=1;entryDx=0;entryDy=0;endArrow=none;endFill=0;exitX=0.75;exitY=0;exitDx=0;exitDy=0;" parent="1" source="08eEhRoF3qQgYaHTuPXr-47" target="08eEhRoF3qQgYaHTuPXr-48" edge="1">
          <mxGeometry relative="1" as="geometry" />
        </mxCell>
        <mxCell id="08eEhRoF3qQgYaHTuPXr-51" style="edgeStyle=orthogonalEdgeStyle;rounded=0;orthogonalLoop=1;jettySize=auto;html=1;entryX=0.5;entryY=1;entryDx=0;entryDy=0;endArrow=none;endFill=0;" parent="1" source="08eEhRoF3qQgYaHTuPXr-47" target="08eEhRoF3qQgYaHTuPXr-49" edge="1">
          <mxGeometry relative="1" as="geometry" />
        </mxCell>
        <mxCell id="08eEhRoF3qQgYaHTuPXr-47" value="Rol" style="rounded=0;whiteSpace=wrap;html=1;" parent="1" vertex="1">
          <mxGeometry x="61" y="-150" width="120" height="60" as="geometry" />
        </mxCell>
        <mxCell id="08eEhRoF3qQgYaHTuPXr-48" value="idRol" style="ellipse;whiteSpace=wrap;html=1;" parent="1" vertex="1">
          <mxGeometry x="160" y="-250" width="100" height="60" as="geometry" />
        </mxCell>
        <mxCell id="08eEhRoF3qQgYaHTuPXr-49" value="nombreRol" style="ellipse;whiteSpace=wrap;html=1;" parent="1" vertex="1">
          <mxGeometry x="10" y="-250" width="90" height="60" as="geometry" />
        </mxCell>
        <mxCell id="08eEhRoF3qQgYaHTuPXr-52" value="" style="endArrow=none;html=1;rounded=0;entryX=0.5;entryY=1;entryDx=0;entryDy=0;exitX=0.5;exitY=0;exitDx=0;exitDy=0;" parent="1" source="08eEhRoF3qQgYaHTuPXr-53" target="08eEhRoF3qQgYaHTuPXr-47" edge="1">
          <mxGeometry width="50" height="50" relative="1" as="geometry">
            <mxPoint x="250" y="120" as="sourcePoint" />
            <mxPoint x="300" y="70" as="targetPoint" />
          </mxGeometry>
        </mxCell>
        <mxCell id="08eEhRoF3qQgYaHTuPXr-58" value="1" style="edgeLabel;html=1;align=center;verticalAlign=middle;resizable=0;points=[];" parent="08eEhRoF3qQgYaHTuPXr-52" vertex="1" connectable="0">
          <mxGeometry x="0.3053" y="2" relative="1" as="geometry">
            <mxPoint as="offset" />
          </mxGeometry>
        </mxCell>
        <mxCell id="08eEhRoF3qQgYaHTuPXr-54" value="" style="endArrow=none;html=1;rounded=0;entryX=0.5;entryY=1;entryDx=0;entryDy=0;exitX=0.5;exitY=0;exitDx=0;exitDy=0;" parent="1" source="y7kLAWsCqg2laiNbHwTD-44" target="08eEhRoF3qQgYaHTuPXr-53" edge="1">
          <mxGeometry width="50" height="50" relative="1" as="geometry">
            <mxPoint x="115" y="110" as="sourcePoint" />
            <mxPoint x="121" y="-90" as="targetPoint" />
          </mxGeometry>
        </mxCell>
        <mxCell id="08eEhRoF3qQgYaHTuPXr-57" value="N" style="edgeLabel;html=1;align=center;verticalAlign=middle;resizable=0;points=[];" parent="08eEhRoF3qQgYaHTuPXr-54" vertex="1" connectable="0">
          <mxGeometry x="-0.5147" relative="1" as="geometry">
            <mxPoint as="offset" />
          </mxGeometry>
        </mxCell>
        <mxCell id="08eEhRoF3qQgYaHTuPXr-53" value="Tiene" style="rhombus;whiteSpace=wrap;html=1;" parent="1" vertex="1">
          <mxGeometry x="80" y="-40" width="80" height="80" as="geometry" />
        </mxCell>
        <mxCell id="08eEhRoF3qQgYaHTuPXr-61" style="rounded=0;orthogonalLoop=1;jettySize=auto;html=1;entryX=0.75;entryY=1;entryDx=0;entryDy=0;endArrow=none;endFill=0;" parent="1" source="08eEhRoF3qQgYaHTuPXr-60" target="3" edge="1">
          <mxGeometry relative="1" as="geometry" />
        </mxCell>
        <mxCell id="08eEhRoF3qQgYaHTuPXr-60" value="&lt;b&gt;idProveedor&lt;/b&gt;" style="ellipse;whiteSpace=wrap;html=1;labelBackgroundColor=none;" parent="1" vertex="1">
          <mxGeometry x="690" y="565" width="100" height="40" as="geometry" />
        </mxCell>
        <mxCell id="08eEhRoF3qQgYaHTuPXr-65" value="&lt;b&gt;idFactura&lt;/b&gt;" style="ellipse;whiteSpace=wrap;html=1;" parent="1" vertex="1">
          <mxGeometry x="820" width="110" height="60" as="geometry" />
        </mxCell>
        <mxCell id="08eEhRoF3qQgYaHTuPXr-66" style="rounded=0;orthogonalLoop=1;jettySize=auto;html=1;entryX=0.988;entryY=0.088;entryDx=0;entryDy=0;entryPerimeter=0;endArrow=none;endFill=0;" parent="1" source="08eEhRoF3qQgYaHTuPXr-65" target="pQA0Kj6OJykvpGHmowDV-48" edge="1">
          <mxGeometry relative="1" as="geometry" />
        </mxCell>
        <mxCell id="08eEhRoF3qQgYaHTuPXr-73" style="rounded=0;orthogonalLoop=1;jettySize=auto;html=1;entryX=0;entryY=0;entryDx=0;entryDy=0;endArrow=none;endFill=0;" parent="1" source="08eEhRoF3qQgYaHTuPXr-72" target="pQA0Kj6OJykvpGHmowDV-48" edge="1">
          <mxGeometry relative="1" as="geometry" />
        </mxCell>
        <mxCell id="08eEhRoF3qQgYaHTuPXr-72" value="&lt;b&gt;idUsuario&lt;/b&gt;" style="ellipse;whiteSpace=wrap;html=1;" parent="1" vertex="1">
          <mxGeometry x="414" y="-160" width="110" height="60" as="geometry" />
        </mxCell>
        <mxCell id="h6zpoAew70x22OwjK9tS-33" value="&lt;b&gt;idCategoria&lt;/b&gt;" style="ellipse;whiteSpace=wrap;html=1;labelBackgroundColor=none;" parent="1" vertex="1">
          <mxGeometry x="440" y="565" width="100" height="40" as="geometry" />
        </mxCell>
        <mxCell id="h6zpoAew70x22OwjK9tS-40" style="edgeStyle=orthogonalEdgeStyle;rounded=0;orthogonalLoop=1;jettySize=auto;html=1;entryX=0.5;entryY=1;entryDx=0;entryDy=0;endArrow=none;endFill=0;" parent="1" source="h6zpoAew70x22OwjK9tS-35" target="h6zpoAew70x22OwjK9tS-39" edge="1">
          <mxGeometry relative="1" as="geometry" />
        </mxCell>
        <mxCell id="h6zpoAew70x22OwjK9tS-44" style="edgeStyle=orthogonalEdgeStyle;rounded=0;orthogonalLoop=1;jettySize=auto;html=1;exitX=0.25;exitY=0;exitDx=0;exitDy=0;entryX=0.5;entryY=1;entryDx=0;entryDy=0;endArrow=none;endFill=0;" parent="1" source="h6zpoAew70x22OwjK9tS-35" target="h6zpoAew70x22OwjK9tS-41" edge="1">
          <mxGeometry relative="1" as="geometry" />
        </mxCell>
        <mxCell id="h6zpoAew70x22OwjK9tS-47" style="edgeStyle=orthogonalEdgeStyle;rounded=0;orthogonalLoop=1;jettySize=auto;html=1;entryX=0.5;entryY=1;entryDx=0;entryDy=0;endArrow=none;endFill=0;" parent="1" source="h6zpoAew70x22OwjK9tS-35" target="h6zpoAew70x22OwjK9tS-46" edge="1">
          <mxGeometry relative="1" as="geometry" />
        </mxCell>
        <mxCell id="Q_7jBojn_OcZY7hOuqUb-18" style="rounded=0;orthogonalLoop=1;jettySize=auto;html=1;entryX=0.5;entryY=0;entryDx=0;entryDy=0;shape=wire;dashed=1;endArrow=none;endFill=0;" edge="1" parent="1" source="Q_7jBojn_OcZY7hOuqUb-22" target="y7kLAWsCqg2laiNbHwTD-26">
          <mxGeometry relative="1" as="geometry">
            <mxPoint x="1150" y="-310" as="targetPoint" />
            <Array as="points" />
          </mxGeometry>
        </mxCell>
        <mxCell id="Q_7jBojn_OcZY7hOuqUb-21" value="1" style="edgeLabel;html=1;align=center;verticalAlign=middle;resizable=0;points=[];" vertex="1" connectable="0" parent="Q_7jBojn_OcZY7hOuqUb-18">
          <mxGeometry x="0.9489" y="2" relative="1" as="geometry">
            <mxPoint as="offset" />
          </mxGeometry>
        </mxCell>
        <mxCell id="h6zpoAew70x22OwjK9tS-35" value="Cliente" style="rounded=0;whiteSpace=wrap;html=1;" parent="1" vertex="1">
          <mxGeometry x="620" y="-340" width="120" height="60" as="geometry" />
        </mxCell>
        <mxCell id="h6zpoAew70x22OwjK9tS-37" style="edgeStyle=orthogonalEdgeStyle;rounded=0;orthogonalLoop=1;jettySize=auto;html=1;entryX=0.5;entryY=0;entryDx=0;entryDy=0;endArrow=none;endFill=0;" parent="1" source="h6zpoAew70x22OwjK9tS-36" target="pQA0Kj6OJykvpGHmowDV-48" edge="1">
          <mxGeometry relative="1" as="geometry" />
        </mxCell>
        <mxCell id="cYDFPBk2xyAjtoR8LwgO-20" value="N" style="edgeLabel;html=1;align=center;verticalAlign=middle;resizable=0;points=[];" parent="h6zpoAew70x22OwjK9tS-37" vertex="1" connectable="0">
          <mxGeometry x="0.8442" relative="1" as="geometry">
            <mxPoint as="offset" />
          </mxGeometry>
        </mxCell>
        <mxCell id="h6zpoAew70x22OwjK9tS-38" style="edgeStyle=orthogonalEdgeStyle;rounded=0;orthogonalLoop=1;jettySize=auto;html=1;entryX=0.5;entryY=1;entryDx=0;entryDy=0;endArrow=none;endFill=0;" parent="1" source="h6zpoAew70x22OwjK9tS-36" target="h6zpoAew70x22OwjK9tS-35" edge="1">
          <mxGeometry relative="1" as="geometry" />
        </mxCell>
        <mxCell id="cYDFPBk2xyAjtoR8LwgO-19" value="1" style="edgeLabel;html=1;align=center;verticalAlign=middle;resizable=0;points=[];" parent="h6zpoAew70x22OwjK9tS-38" vertex="1" connectable="0">
          <mxGeometry x="0.7143" y="4" relative="1" as="geometry">
            <mxPoint as="offset" />
          </mxGeometry>
        </mxCell>
        <mxCell id="h6zpoAew70x22OwjK9tS-36" value="Realiza" style="rhombus;whiteSpace=wrap;html=1;" parent="1" vertex="1">
          <mxGeometry x="640" y="-190" width="80" height="80" as="geometry" />
        </mxCell>
        <mxCell id="h6zpoAew70x22OwjK9tS-39" value="&lt;u&gt;idCliente&lt;/u&gt;" style="ellipse;whiteSpace=wrap;html=1;" parent="1" vertex="1">
          <mxGeometry x="730" y="-440" width="90" height="50" as="geometry" />
        </mxCell>
        <mxCell id="h6zpoAew70x22OwjK9tS-41" value="nombreCliente" style="ellipse;whiteSpace=wrap;html=1;" parent="1" vertex="1">
          <mxGeometry x="590" y="-440" width="110" height="45" as="geometry" />
        </mxCell>
        <mxCell id="h6zpoAew70x22OwjK9tS-42" value="&lt;b&gt;idCliente&lt;/b&gt;" style="ellipse;whiteSpace=wrap;html=1;" parent="1" vertex="1">
          <mxGeometry x="350" y="-70" width="110" height="60" as="geometry" />
        </mxCell>
        <mxCell id="h6zpoAew70x22OwjK9tS-46" value="DUI" style="ellipse;whiteSpace=wrap;html=1;" parent="1" vertex="1">
          <mxGeometry x="485" y="-395" width="90" height="50" as="geometry" />
        </mxCell>
        <mxCell id="h6zpoAew70x22OwjK9tS-54" style="edgeStyle=orthogonalEdgeStyle;rounded=0;orthogonalLoop=1;jettySize=auto;html=1;entryX=0;entryY=0.75;entryDx=0;entryDy=0;endArrow=none;endFill=0;" parent="1" source="h6zpoAew70x22OwjK9tS-50" target="h6zpoAew70x22OwjK9tS-35" edge="1">
          <mxGeometry relative="1" as="geometry" />
        </mxCell>
        <mxCell id="h6zpoAew70x22OwjK9tS-50" value="telefono" style="ellipse;whiteSpace=wrap;html=1;" parent="1" vertex="1">
          <mxGeometry x="460" y="-290" width="90" height="50" as="geometry" />
        </mxCell>
        <mxCell id="h6zpoAew70x22OwjK9tS-56" style="edgeStyle=orthogonalEdgeStyle;rounded=0;orthogonalLoop=1;jettySize=auto;html=1;entryX=1;entryY=0.75;entryDx=0;entryDy=0;endArrow=none;endFill=0;" parent="1" source="h6zpoAew70x22OwjK9tS-51" target="h6zpoAew70x22OwjK9tS-35" edge="1">
          <mxGeometry relative="1" as="geometry">
            <Array as="points">
              <mxPoint x="875" y="-290" />
              <mxPoint x="785" y="-290" />
              <mxPoint x="785" y="-295" />
            </Array>
          </mxGeometry>
        </mxCell>
        <mxCell id="h6zpoAew70x22OwjK9tS-51" value="correo" style="ellipse;whiteSpace=wrap;html=1;" parent="1" vertex="1">
          <mxGeometry x="830" y="-280" width="90" height="50" as="geometry" />
        </mxCell>
        <mxCell id="h6zpoAew70x22OwjK9tS-52" value="fechaRegistro" style="ellipse;whiteSpace=wrap;html=1;" parent="1" vertex="1">
          <mxGeometry x="740" y="-240" width="90" height="50" as="geometry" />
        </mxCell>
        <mxCell id="h6zpoAew70x22OwjK9tS-55" style="edgeStyle=orthogonalEdgeStyle;rounded=0;orthogonalLoop=1;jettySize=auto;html=1;entryX=0.833;entryY=0.95;entryDx=0;entryDy=0;entryPerimeter=0;endArrow=none;endFill=0;" parent="1" source="h6zpoAew70x22OwjK9tS-52" target="h6zpoAew70x22OwjK9tS-35" edge="1">
          <mxGeometry relative="1" as="geometry" />
        </mxCell>
        <mxCell id="cYDFPBk2xyAjtoR8LwgO-23" style="rounded=0;orthogonalLoop=1;jettySize=auto;html=1;entryX=0;entryY=0.75;entryDx=0;entryDy=0;endArrow=none;endFill=0;" parent="1" source="cYDFPBk2xyAjtoR8LwgO-22" target="y7kLAWsCqg2laiNbHwTD-44" edge="1">
          <mxGeometry relative="1" as="geometry" />
        </mxCell>
        <mxCell id="cYDFPBk2xyAjtoR8LwgO-22" value="&lt;b&gt;idRol&lt;/b&gt;" style="ellipse;whiteSpace=wrap;html=1;" parent="1" vertex="1">
          <mxGeometry x="-139" y="120" width="100" height="40" as="geometry" />
        </mxCell>
        <mxCell id="cYDFPBk2xyAjtoR8LwgO-28" value="CantidadProduc" style="ellipse;whiteSpace=wrap;html=1;" parent="1" vertex="1">
          <mxGeometry x="792" y="-170" width="96" height="60" as="geometry" />
        </mxCell>
        <mxCell id="cYDFPBk2xyAjtoR8LwgO-31" value="total" style="ellipse;whiteSpace=wrap;html=1;" parent="1" vertex="1">
          <mxGeometry x="340" y="10.000000000000071" width="96" height="60" as="geometry" />
        </mxCell>
        <mxCell id="cYDFPBk2xyAjtoR8LwgO-32" value="" style="endArrow=none;html=1;rounded=0;entryX=1;entryY=1;entryDx=0;entryDy=0;exitX=0;exitY=0.5;exitDx=0;exitDy=0;" parent="1" source="pQA0Kj6OJykvpGHmowDV-48" target="cYDFPBk2xyAjtoR8LwgO-31" edge="1">
          <mxGeometry width="50" height="50" relative="1" as="geometry">
            <mxPoint x="302" y="-18.96" as="sourcePoint" />
            <mxPoint x="314" y="-181.04" as="targetPoint" />
          </mxGeometry>
        </mxCell>
        <mxCell id="Q_7jBojn_OcZY7hOuqUb-23" value="" style="rounded=0;orthogonalLoop=1;jettySize=auto;html=1;entryX=0.5;entryY=0;entryDx=0;entryDy=0;shape=wire;dashed=1;endArrow=none;endFill=0;" edge="1" parent="1" source="h6zpoAew70x22OwjK9tS-35" target="Q_7jBojn_OcZY7hOuqUb-22">
          <mxGeometry relative="1" as="geometry">
            <mxPoint x="1180" y="110" as="targetPoint" />
            <mxPoint x="740" y="-310" as="sourcePoint" />
            <Array as="points" />
          </mxGeometry>
        </mxCell>
        <mxCell id="Q_7jBojn_OcZY7hOuqUb-24" value="1" style="edgeLabel;html=1;align=center;verticalAlign=middle;resizable=0;points=[];" vertex="1" connectable="0" parent="Q_7jBojn_OcZY7hOuqUb-23">
          <mxGeometry x="-0.8658" y="-1" relative="1" as="geometry">
            <mxPoint as="offset" />
          </mxGeometry>
        </mxCell>
        <mxCell id="Q_7jBojn_OcZY7hOuqUb-22" value="Obtiene" style="rhombus;whiteSpace=wrap;html=1;" vertex="1" parent="1">
          <mxGeometry x="1140" y="-310" width="80" height="80" as="geometry" />
        </mxCell>
        <mxCell id="Q_7jBojn_OcZY7hOuqUb-26" value="" style="group" vertex="1" connectable="0" parent="1">
          <mxGeometry x="-100" y="320" width="464" height="300" as="geometry" />
        </mxCell>
        <mxCell id="cYDFPBk2xyAjtoR8LwgO-33" style="rounded=0;orthogonalLoop=1;jettySize=auto;html=1;entryX=0.5;entryY=0;entryDx=0;entryDy=0;endArrow=none;endFill=0;" parent="Q_7jBojn_OcZY7hOuqUb-26" source="2" target="cYDFPBk2xyAjtoR8LwgO-34" edge="1">
          <mxGeometry relative="1" as="geometry">
            <mxPoint x="130" y="250" as="targetPoint" />
          </mxGeometry>
        </mxCell>
        <mxCell id="2" value="Proveedor" style="shape=rectangle;whiteSpace=wrap;html=1;labelBackgroundColor=none;" parent="Q_7jBojn_OcZY7hOuqUb-26" vertex="1">
          <mxGeometry x="80" y="135.00000000000006" width="100" height="50" as="geometry" />
        </mxCell>
        <mxCell id="4" value="&lt;u&gt;idProveedor&lt;/u&gt;" style="ellipse;whiteSpace=wrap;html=1;labelBackgroundColor=none;" parent="Q_7jBojn_OcZY7hOuqUb-26" vertex="1">
          <mxGeometry x="120" y="50" width="100" height="40" as="geometry" />
        </mxCell>
        <mxCell id="5" style="endArrow=none;labelBackgroundColor=none;fontColor=default;" parent="Q_7jBojn_OcZY7hOuqUb-26" source="4" target="2" edge="1">
          <mxGeometry relative="1" as="geometry" />
        </mxCell>
        <mxCell id="6" value="nombreProveedor" style="ellipse;whiteSpace=wrap;html=1;labelBackgroundColor=none;" parent="Q_7jBojn_OcZY7hOuqUb-26" vertex="1">
          <mxGeometry x="40" width="110" height="50" as="geometry" />
        </mxCell>
        <mxCell id="7" style="endArrow=none;labelBackgroundColor=none;fontColor=default;exitX=0.544;exitY=0.964;exitDx=0;exitDy=0;exitPerimeter=0;" parent="Q_7jBojn_OcZY7hOuqUb-26" source="6" target="2" edge="1">
          <mxGeometry relative="1" as="geometry">
            <mxPoint x="104.45035126865969" y="49.920619964475236" as="sourcePoint" />
          </mxGeometry>
        </mxCell>
        <mxCell id="8" value="telefono" style="ellipse;whiteSpace=wrap;html=1;labelBackgroundColor=none;" parent="Q_7jBojn_OcZY7hOuqUb-26" vertex="1">
          <mxGeometry y="69.92000000000002" width="100" height="40" as="geometry" />
        </mxCell>
        <mxCell id="9" style="endArrow=none;labelBackgroundColor=none;fontColor=default;exitX=0.5;exitY=1;exitDx=0;exitDy=0;" parent="Q_7jBojn_OcZY7hOuqUb-26" source="8" target="2" edge="1">
          <mxGeometry relative="1" as="geometry">
            <mxPoint x="81.06416055627255" y="118.13858270123455" as="sourcePoint" />
          </mxGeometry>
        </mxCell>
        <mxCell id="16" value="Suministra" style="rhombus;whiteSpace=wrap;html=1;labelBackgroundColor=none;" parent="Q_7jBojn_OcZY7hOuqUb-26" vertex="1">
          <mxGeometry x="364" y="130" width="100" height="60" as="geometry" />
        </mxCell>
        <mxCell id="17" style="endArrow=none;labelBackgroundColor=none;fontColor=default;" parent="Q_7jBojn_OcZY7hOuqUb-26" source="2" target="16" edge="1">
          <mxGeometry relative="1" as="geometry" />
        </mxCell>
        <mxCell id="gljLNmItJ9WPMDE9Uoeo-18" value="direccion" style="ellipse;whiteSpace=wrap;html=1;labelBackgroundColor=none;" parent="Q_7jBojn_OcZY7hOuqUb-26" vertex="1">
          <mxGeometry x="200" y="90" width="100" height="40" as="geometry" />
        </mxCell>
        <mxCell id="gljLNmItJ9WPMDE9Uoeo-20" value="" style="endArrow=none;html=1;rounded=0;entryX=0.176;entryY=0.895;entryDx=0;entryDy=0;entryPerimeter=0;labelBackgroundColor=none;fontColor=default;" parent="Q_7jBojn_OcZY7hOuqUb-26" target="gljLNmItJ9WPMDE9Uoeo-18" edge="1">
          <mxGeometry width="50" height="50" relative="1" as="geometry">
            <mxPoint x="180" y="140.00000000000006" as="sourcePoint" />
            <mxPoint x="170" y="120" as="targetPoint" />
          </mxGeometry>
        </mxCell>
        <mxCell id="uA272MFgi9DEpugLpFdo-18" value="1" style="text;html=1;align=center;verticalAlign=middle;whiteSpace=wrap;rounded=0;labelBackgroundColor=none;" parent="Q_7jBojn_OcZY7hOuqUb-26" vertex="1">
          <mxGeometry x="180" y="135.00000000000006" width="60" height="30" as="geometry" />
        </mxCell>
        <mxCell id="cYDFPBk2xyAjtoR8LwgO-34" value="nombreTrabajador" style="ellipse;whiteSpace=wrap;html=1;labelBackgroundColor=none;" parent="Q_7jBojn_OcZY7hOuqUb-26" vertex="1">
          <mxGeometry x="75" y="250" width="110" height="50" as="geometry" />
        </mxCell>
      </root>
    </mxGraphModel>
  </diagram>
</mxfile>
